<mxfile host="app.diagrams.net" modified="2021-05-09T15:07:01.138Z" agent="5.0 (X11; Linux x86_64) AppleWebKit/537.36 (KHTML, like Gecko) Chrome/90.0.4430.85 Safari/537.36" etag="llz-CA-42lD6cpBUsoO6" version="14.6.11" type="github">
  <diagram id="C5RBs43oDa-KdzZeNtuy" name="Page-1">
    <mxGraphModel dx="865" dy="466" grid="1" gridSize="10" guides="1" tooltips="1" connect="1" arrows="1" fold="1" page="1" pageScale="1" pageWidth="827" pageHeight="1169" math="0" shadow="0">
      <root>
        <mxCell id="WIyWlLk6GJQsqaUBKTNV-0" />
        <mxCell id="WIyWlLk6GJQsqaUBKTNV-1" parent="WIyWlLk6GJQsqaUBKTNV-0" />
        <mxCell id="Kjml_4NwDwtvKxTAV_FZ-0" value="&lt;font style=&quot;font-size: 30px&quot;&gt;Creational patterns&lt;/font&gt;" style="text;html=1;strokeColor=#6c8ebf;fillColor=#dae8fc;align=center;verticalAlign=middle;whiteSpace=wrap;rounded=0;" vertex="1" parent="WIyWlLk6GJQsqaUBKTNV-1">
          <mxGeometry x="440" y="40" width="290" height="60" as="geometry" />
        </mxCell>
        <mxCell id="Kjml_4NwDwtvKxTAV_FZ-1" value="&lt;font style=&quot;font-size: 20px&quot;&gt;Singleton&lt;/font&gt;" style="text;html=1;strokeColor=#6c8ebf;fillColor=#dae8fc;align=center;verticalAlign=middle;whiteSpace=wrap;rounded=0;" vertex="1" parent="WIyWlLk6GJQsqaUBKTNV-1">
          <mxGeometry x="110" y="160" width="130" height="40" as="geometry" />
        </mxCell>
        <mxCell id="Kjml_4NwDwtvKxTAV_FZ-5" value="Singleton" style="swimlane;fontStyle=1;align=center;verticalAlign=top;childLayout=stackLayout;horizontal=1;startSize=26;horizontalStack=0;resizeParent=1;resizeParentMax=0;resizeLast=0;collapsible=1;marginBottom=0;" vertex="1" parent="WIyWlLk6GJQsqaUBKTNV-1">
          <mxGeometry x="110" y="310" width="160" height="100" as="geometry" />
        </mxCell>
        <mxCell id="Kjml_4NwDwtvKxTAV_FZ-6" value="+ __instance" style="text;strokeColor=none;fillColor=none;align=left;verticalAlign=top;spacingLeft=4;spacingRight=4;overflow=hidden;rotatable=0;points=[[0,0.5],[1,0.5]];portConstraint=eastwest;" vertex="1" parent="Kjml_4NwDwtvKxTAV_FZ-5">
          <mxGeometry y="26" width="160" height="26" as="geometry" />
        </mxCell>
        <mxCell id="Kjml_4NwDwtvKxTAV_FZ-7" value="" style="line;strokeWidth=1;fillColor=none;align=left;verticalAlign=middle;spacingTop=-1;spacingLeft=3;spacingRight=3;rotatable=0;labelPosition=right;points=[];portConstraint=eastwest;" vertex="1" parent="Kjml_4NwDwtvKxTAV_FZ-5">
          <mxGeometry y="52" width="160" height="8" as="geometry" />
        </mxCell>
        <mxCell id="Kjml_4NwDwtvKxTAV_FZ-9" value="returns" style="edgeStyle=orthogonalEdgeStyle;rounded=0;orthogonalLoop=1;jettySize=auto;html=1;entryX=0.5;entryY=0;entryDx=0;entryDy=0;" edge="1" parent="Kjml_4NwDwtvKxTAV_FZ-5" source="Kjml_4NwDwtvKxTAV_FZ-8" target="Kjml_4NwDwtvKxTAV_FZ-5">
          <mxGeometry x="-0.1667" relative="1" as="geometry">
            <Array as="points">
              <mxPoint x="-20" y="80" />
              <mxPoint x="-20" y="-20" />
              <mxPoint x="80" y="-20" />
            </Array>
            <mxPoint as="offset" />
          </mxGeometry>
        </mxCell>
        <mxCell id="Kjml_4NwDwtvKxTAV_FZ-8" value="+ __init__()&#xa;+ set_instance()" style="text;strokeColor=none;fillColor=none;align=left;verticalAlign=top;spacingLeft=4;spacingRight=4;overflow=hidden;rotatable=0;points=[[0,0.5],[1,0.5]];portConstraint=eastwest;" vertex="1" parent="Kjml_4NwDwtvKxTAV_FZ-5">
          <mxGeometry y="60" width="160" height="40" as="geometry" />
        </mxCell>
        <mxCell id="Kjml_4NwDwtvKxTAV_FZ-11" value="use" style="edgeStyle=orthogonalEdgeStyle;rounded=0;orthogonalLoop=1;jettySize=auto;html=1;entryX=0.5;entryY=0;entryDx=0;entryDy=0;" edge="1" parent="WIyWlLk6GJQsqaUBKTNV-1" source="Kjml_4NwDwtvKxTAV_FZ-10" target="Kjml_4NwDwtvKxTAV_FZ-5">
          <mxGeometry relative="1" as="geometry" />
        </mxCell>
        <mxCell id="Kjml_4NwDwtvKxTAV_FZ-10" value="USER" style="html=1;" vertex="1" parent="WIyWlLk6GJQsqaUBKTNV-1">
          <mxGeometry x="135" y="220" width="110" height="30" as="geometry" />
        </mxCell>
        <mxCell id="Kjml_4NwDwtvKxTAV_FZ-12" value="&lt;font style=&quot;font-size: 20px&quot;&gt;Builder&lt;/font&gt;" style="text;html=1;strokeColor=#6c8ebf;fillColor=#dae8fc;align=center;verticalAlign=middle;whiteSpace=wrap;rounded=0;" vertex="1" parent="WIyWlLk6GJQsqaUBKTNV-1">
          <mxGeometry x="450" y="160" width="130" height="40" as="geometry" />
        </mxCell>
        <mxCell id="Kjml_4NwDwtvKxTAV_FZ-13" value="USER" style="html=1;" vertex="1" parent="WIyWlLk6GJQsqaUBKTNV-1">
          <mxGeometry x="460" y="220" width="110" height="30" as="geometry" />
        </mxCell>
        <mxCell id="Kjml_4NwDwtvKxTAV_FZ-14" value="Builder" style="swimlane;fontStyle=1;align=center;verticalAlign=top;childLayout=stackLayout;horizontal=1;startSize=26;horizontalStack=0;resizeParent=1;resizeParentMax=0;resizeLast=0;collapsible=1;marginBottom=0;" vertex="1" parent="WIyWlLk6GJQsqaUBKTNV-1">
          <mxGeometry x="430" y="310" width="160" height="110" as="geometry" />
        </mxCell>
        <mxCell id="Kjml_4NwDwtvKxTAV_FZ-16" value="" style="line;strokeWidth=1;fillColor=none;align=left;verticalAlign=middle;spacingTop=-1;spacingLeft=3;spacingRight=3;rotatable=0;labelPosition=right;points=[];portConstraint=eastwest;" vertex="1" parent="Kjml_4NwDwtvKxTAV_FZ-14">
          <mxGeometry y="26" width="160" height="8" as="geometry" />
        </mxCell>
        <mxCell id="Kjml_4NwDwtvKxTAV_FZ-17" value="+ drow_line()&#xa;+ drow_reactangle()&#xa;+ drow_text()&#xa;+ drow_picture()" style="text;strokeColor=none;fillColor=none;align=left;verticalAlign=top;spacingLeft=4;spacingRight=4;overflow=hidden;rotatable=0;points=[[0,0.5],[1,0.5]];portConstraint=eastwest;" vertex="1" parent="Kjml_4NwDwtvKxTAV_FZ-14">
          <mxGeometry y="34" width="160" height="76" as="geometry" />
        </mxCell>
        <mxCell id="Kjml_4NwDwtvKxTAV_FZ-18" value="Graphic" style="swimlane;fontStyle=1;align=center;verticalAlign=top;childLayout=stackLayout;horizontal=1;startSize=26;horizontalStack=0;resizeParent=1;resizeParentMax=0;resizeLast=0;collapsible=1;marginBottom=0;" vertex="1" parent="WIyWlLk6GJQsqaUBKTNV-1">
          <mxGeometry x="775" y="320" width="160" height="60" as="geometry" />
        </mxCell>
        <mxCell id="Kjml_4NwDwtvKxTAV_FZ-20" value="" style="line;strokeWidth=1;fillColor=none;align=left;verticalAlign=middle;spacingTop=-1;spacingLeft=3;spacingRight=3;rotatable=0;labelPosition=right;points=[];portConstraint=eastwest;" vertex="1" parent="Kjml_4NwDwtvKxTAV_FZ-18">
          <mxGeometry y="26" width="160" height="8" as="geometry" />
        </mxCell>
        <mxCell id="Kjml_4NwDwtvKxTAV_FZ-21" value="+ draw()" style="text;strokeColor=none;fillColor=none;align=left;verticalAlign=top;spacingLeft=4;spacingRight=4;overflow=hidden;rotatable=0;points=[[0,0.5],[1,0.5]];portConstraint=eastwest;" vertex="1" parent="Kjml_4NwDwtvKxTAV_FZ-18">
          <mxGeometry y="34" width="160" height="26" as="geometry" />
        </mxCell>
        <mxCell id="Kjml_4NwDwtvKxTAV_FZ-22" value="DrawPicture" style="swimlane;fontStyle=1;align=center;verticalAlign=top;childLayout=stackLayout;horizontal=1;startSize=26;horizontalStack=0;resizeParent=1;resizeParentMax=0;resizeLast=0;collapsible=1;marginBottom=0;" vertex="1" parent="WIyWlLk6GJQsqaUBKTNV-1">
          <mxGeometry x="610" y="210" width="160" height="80" as="geometry" />
        </mxCell>
        <mxCell id="Kjml_4NwDwtvKxTAV_FZ-24" value="" style="line;strokeWidth=1;fillColor=none;align=left;verticalAlign=middle;spacingTop=-1;spacingLeft=3;spacingRight=3;rotatable=0;labelPosition=right;points=[];portConstraint=eastwest;" vertex="1" parent="Kjml_4NwDwtvKxTAV_FZ-22">
          <mxGeometry y="26" width="160" height="8" as="geometry" />
        </mxCell>
        <mxCell id="Kjml_4NwDwtvKxTAV_FZ-25" value="+ __init__()&#xa;+ draw_picture()" style="text;strokeColor=none;fillColor=none;align=left;verticalAlign=top;spacingLeft=4;spacingRight=4;overflow=hidden;rotatable=0;points=[[0,0.5],[1,0.5]];portConstraint=eastwest;" vertex="1" parent="Kjml_4NwDwtvKxTAV_FZ-22">
          <mxGeometry y="34" width="160" height="46" as="geometry" />
        </mxCell>
        <mxCell id="Kjml_4NwDwtvKxTAV_FZ-35" style="edgeStyle=orthogonalEdgeStyle;rounded=0;orthogonalLoop=1;jettySize=auto;html=1;entryX=0.534;entryY=1.015;entryDx=0;entryDy=0;entryPerimeter=0;" edge="1" parent="WIyWlLk6GJQsqaUBKTNV-1" source="Kjml_4NwDwtvKxTAV_FZ-26" target="Kjml_4NwDwtvKxTAV_FZ-21">
          <mxGeometry relative="1" as="geometry" />
        </mxCell>
        <mxCell id="Kjml_4NwDwtvKxTAV_FZ-26" value="Graphic" style="swimlane;fontStyle=1;align=center;verticalAlign=top;childLayout=stackLayout;horizontal=1;startSize=26;horizontalStack=0;resizeParent=1;resizeParentMax=0;resizeLast=0;collapsible=1;marginBottom=0;" vertex="1" parent="WIyWlLk6GJQsqaUBKTNV-1">
          <mxGeometry x="680" y="460" width="103" height="60" as="geometry" />
        </mxCell>
        <mxCell id="Kjml_4NwDwtvKxTAV_FZ-27" value="" style="line;strokeWidth=1;fillColor=none;align=left;verticalAlign=middle;spacingTop=-1;spacingLeft=3;spacingRight=3;rotatable=0;labelPosition=right;points=[];portConstraint=eastwest;" vertex="1" parent="Kjml_4NwDwtvKxTAV_FZ-26">
          <mxGeometry y="26" width="103" height="8" as="geometry" />
        </mxCell>
        <mxCell id="Kjml_4NwDwtvKxTAV_FZ-28" value="+ draw()" style="text;strokeColor=none;fillColor=none;align=left;verticalAlign=top;spacingLeft=4;spacingRight=4;overflow=hidden;rotatable=0;points=[[0,0.5],[1,0.5]];portConstraint=eastwest;" vertex="1" parent="Kjml_4NwDwtvKxTAV_FZ-26">
          <mxGeometry y="34" width="103" height="26" as="geometry" />
        </mxCell>
        <mxCell id="Kjml_4NwDwtvKxTAV_FZ-36" style="edgeStyle=orthogonalEdgeStyle;rounded=0;orthogonalLoop=1;jettySize=auto;html=1;entryX=0.534;entryY=1.169;entryDx=0;entryDy=0;entryPerimeter=0;" edge="1" parent="WIyWlLk6GJQsqaUBKTNV-1" source="Kjml_4NwDwtvKxTAV_FZ-29" target="Kjml_4NwDwtvKxTAV_FZ-21">
          <mxGeometry relative="1" as="geometry">
            <Array as="points">
              <mxPoint x="855" y="420" />
              <mxPoint x="860" y="420" />
            </Array>
          </mxGeometry>
        </mxCell>
        <mxCell id="Kjml_4NwDwtvKxTAV_FZ-29" value="Graphic" style="swimlane;fontStyle=1;align=center;verticalAlign=top;childLayout=stackLayout;horizontal=1;startSize=26;horizontalStack=0;resizeParent=1;resizeParentMax=0;resizeLast=0;collapsible=1;marginBottom=0;" vertex="1" parent="WIyWlLk6GJQsqaUBKTNV-1">
          <mxGeometry x="800" y="460" width="110" height="60" as="geometry" />
        </mxCell>
        <mxCell id="Kjml_4NwDwtvKxTAV_FZ-30" value="" style="line;strokeWidth=1;fillColor=none;align=left;verticalAlign=middle;spacingTop=-1;spacingLeft=3;spacingRight=3;rotatable=0;labelPosition=right;points=[];portConstraint=eastwest;" vertex="1" parent="Kjml_4NwDwtvKxTAV_FZ-29">
          <mxGeometry y="26" width="110" height="8" as="geometry" />
        </mxCell>
        <mxCell id="Kjml_4NwDwtvKxTAV_FZ-31" value="+ draw()" style="text;strokeColor=none;fillColor=none;align=left;verticalAlign=top;spacingLeft=4;spacingRight=4;overflow=hidden;rotatable=0;points=[[0,0.5],[1,0.5]];portConstraint=eastwest;" vertex="1" parent="Kjml_4NwDwtvKxTAV_FZ-29">
          <mxGeometry y="34" width="110" height="26" as="geometry" />
        </mxCell>
        <mxCell id="Kjml_4NwDwtvKxTAV_FZ-37" style="edgeStyle=orthogonalEdgeStyle;rounded=0;orthogonalLoop=1;jettySize=auto;html=1;entryX=0.534;entryY=0.985;entryDx=0;entryDy=0;entryPerimeter=0;" edge="1" parent="WIyWlLk6GJQsqaUBKTNV-1" source="Kjml_4NwDwtvKxTAV_FZ-32" target="Kjml_4NwDwtvKxTAV_FZ-21">
          <mxGeometry relative="1" as="geometry" />
        </mxCell>
        <mxCell id="Kjml_4NwDwtvKxTAV_FZ-32" value="Graphic" style="swimlane;fontStyle=1;align=center;verticalAlign=top;childLayout=stackLayout;horizontal=1;startSize=26;horizontalStack=0;resizeParent=1;resizeParentMax=0;resizeLast=0;collapsible=1;marginBottom=0;" vertex="1" parent="WIyWlLk6GJQsqaUBKTNV-1">
          <mxGeometry x="920" y="460" width="110" height="60" as="geometry" />
        </mxCell>
        <mxCell id="Kjml_4NwDwtvKxTAV_FZ-33" value="" style="line;strokeWidth=1;fillColor=none;align=left;verticalAlign=middle;spacingTop=-1;spacingLeft=3;spacingRight=3;rotatable=0;labelPosition=right;points=[];portConstraint=eastwest;" vertex="1" parent="Kjml_4NwDwtvKxTAV_FZ-32">
          <mxGeometry y="26" width="110" height="8" as="geometry" />
        </mxCell>
        <mxCell id="Kjml_4NwDwtvKxTAV_FZ-34" value="+ draw()" style="text;strokeColor=none;fillColor=none;align=left;verticalAlign=top;spacingLeft=4;spacingRight=4;overflow=hidden;rotatable=0;points=[[0,0.5],[1,0.5]];portConstraint=eastwest;" vertex="1" parent="Kjml_4NwDwtvKxTAV_FZ-32">
          <mxGeometry y="34" width="110" height="26" as="geometry" />
        </mxCell>
        <mxCell id="Kjml_4NwDwtvKxTAV_FZ-42" style="edgeStyle=orthogonalEdgeStyle;rounded=0;orthogonalLoop=1;jettySize=auto;html=1;entryX=0.498;entryY=1.011;entryDx=0;entryDy=0;entryPerimeter=0;" edge="1" parent="WIyWlLk6GJQsqaUBKTNV-1" source="Kjml_4NwDwtvKxTAV_FZ-39" target="Kjml_4NwDwtvKxTAV_FZ-17">
          <mxGeometry relative="1" as="geometry" />
        </mxCell>
        <mxCell id="Kjml_4NwDwtvKxTAV_FZ-39" value="DrawPictureBuilder" style="swimlane;fontStyle=1;align=center;verticalAlign=top;childLayout=stackLayout;horizontal=1;startSize=26;horizontalStack=0;resizeParent=1;resizeParentMax=0;resizeLast=0;collapsible=1;marginBottom=0;" vertex="1" parent="WIyWlLk6GJQsqaUBKTNV-1">
          <mxGeometry x="430" y="500" width="160" height="110" as="geometry" />
        </mxCell>
        <mxCell id="Kjml_4NwDwtvKxTAV_FZ-40" value="" style="line;strokeWidth=1;fillColor=none;align=left;verticalAlign=middle;spacingTop=-1;spacingLeft=3;spacingRight=3;rotatable=0;labelPosition=right;points=[];portConstraint=eastwest;" vertex="1" parent="Kjml_4NwDwtvKxTAV_FZ-39">
          <mxGeometry y="26" width="160" height="8" as="geometry" />
        </mxCell>
        <mxCell id="Kjml_4NwDwtvKxTAV_FZ-41" value="+ drow_line()&#xa;+ drow_reactangle()&#xa;+ drow_text()&#xa;+ drow_picture()" style="text;strokeColor=none;fillColor=none;align=left;verticalAlign=top;spacingLeft=4;spacingRight=4;overflow=hidden;rotatable=0;points=[[0,0.5],[1,0.5]];portConstraint=eastwest;" vertex="1" parent="Kjml_4NwDwtvKxTAV_FZ-39">
          <mxGeometry y="34" width="160" height="76" as="geometry" />
        </mxCell>
      </root>
    </mxGraphModel>
  </diagram>
</mxfile>
